<svg version="1.1" xmlns="http://www.w3.org/2000/svg" width="16" height="16" viewBox="-1 -1 16 16" style="enable-background:new -1 -1 16 16"><defs><linearGradient id="0" gradientUnits="userSpaceOnUse" x1="1.5425" y1="1.5425" x2="11.5426" y2="11.5426"><stop style="stop-color:#76b6f3"/><stop offset="1" style="stop-color:#3e90e1"/></linearGradient></defs><path d="M 13 1 V 13 H 1 V 1 H 13" style="fill:url(#0)"/><path d="M-1-1v16h16V-1H-1z M14,14H0V0h14V14z" style="fill:#999"/><path d="M7.032,9.33c0-0.313,0.06-0.572,0.175-0.779C7.323,8.345,7.47,8.169,7.643,8.026
			c0.174-0.144,0.359-0.266,0.561-0.364c0.2-0.101,0.387-0.202,0.561-0.306s0.317-0.221,0.438-0.351
			c0.113-0.13,0.175-0.298,0.175-0.505c0-0.14-0.037-0.265-0.108-0.375c-0.076-0.11-0.174-0.204-0.293-0.28
			c-0.119-0.075-0.261-0.135-0.42-0.175c-0.16-0.04-0.324-0.06-0.49-0.06c-0.399,0-0.739,0.1-1.021,0.3
			c-0.279,0.2-0.438,0.527-0.479,0.979h-1.88c0.013-0.46,0.114-0.85,0.305-1.17c0.189-0.319,0.436-0.58,0.734-0.779
			c0.301-0.2,0.639-0.346,1.016-0.436c0.376-0.09,0.762-0.135,1.154-0.135c0.514,0,0.979,0.045,1.399,0.135s0.78,0.226,1.08,0.405
			c0.299,0.18,0.531,0.407,0.695,0.68c0.163,0.273,0.245,0.59,0.245,0.95c0,0.3-0.062,0.55-0.176,0.75
			c-0.117,0.2-0.266,0.373-0.439,0.521c-0.178,0.147-0.372,0.274-0.584,0.386C9.898,8.306,9.698,8.414,9.512,8.52
			C9.325,8.627,9.164,8.744,9.032,8.871C8.898,8.998,8.818,9.15,8.792,9.33H7.032z M6.942,9.93h1.938v1.699H6.942V9.93z" style="fill:#3472b0"/><path d="M6.032,8.33c0-0.313,0.06-0.572,0.175-0.779C6.323,7.345,6.47,7.169,6.643,7.026
		c0.174-0.144,0.359-0.266,0.561-0.364c0.2-0.101,0.387-0.202,0.561-0.306s0.317-0.221,0.438-0.351
		c0.113-0.13,0.175-0.298,0.175-0.505c0-0.14-0.037-0.265-0.108-0.375c-0.076-0.11-0.174-0.204-0.293-0.28
		c-0.119-0.075-0.261-0.135-0.42-0.175c-0.16-0.04-0.324-0.06-0.49-0.06c-0.399,0-0.739,0.1-1.021,0.3
		c-0.279,0.2-0.438,0.527-0.479,0.979h-1.88c0.013-0.46,0.114-0.85,0.305-1.17c0.189-0.319,0.436-0.58,0.734-0.779
		c0.301-0.2,0.639-0.346,1.016-0.436c0.376-0.09,0.762-0.135,1.154-0.135c0.514,0,0.979,0.045,1.399,0.135s0.78,0.226,1.08,0.405
		c0.299,0.18,0.531,0.407,0.695,0.68c0.163,0.273,0.245,0.59,0.245,0.95c0,0.3-0.062,0.55-0.176,0.75
		c-0.117,0.2-0.266,0.373-0.439,0.521C9.521,6.96,9.327,7.087,9.115,7.198C8.898,7.306,8.698,7.414,8.512,7.52
		C8.325,7.627,8.164,7.744,8.032,7.871C7.898,7.998,7.818,8.15,7.792,8.33H6.032z M5.942,8.93h1.938v1.699H5.942V8.93z" style="fill:#fff"/></svg>